<mxfile host="app.diagrams.net" agent="Mozilla/5.0 (Windows NT 10.0; Win64; x64) AppleWebKit/537.36 (KHTML, like Gecko) Chrome/137.0.0.0 Safari/537.36" version="27.1.6">
  <diagram name="第 1 页" id="D5l0CzFlJoKnXt7Zct3g">
    <mxGraphModel dx="1426" dy="751" grid="1" gridSize="10" guides="1" tooltips="1" connect="1" arrows="1" fold="1" page="1" pageScale="1" pageWidth="4681" pageHeight="3300" math="0" shadow="0">
      <root>
        <mxCell id="0" />
        <mxCell id="1" parent="0" />
        <mxCell id="izUsOxpCVXIgjF28n3Nd-1" value="删除玩家实体逻辑" style="text;html=1;align=center;verticalAlign=middle;whiteSpace=wrap;rounded=0;" vertex="1" parent="1">
          <mxGeometry x="70" y="70" width="230" height="30" as="geometry" />
        </mxCell>
        <mxCell id="izUsOxpCVXIgjF28n3Nd-9" style="edgeStyle=orthogonalEdgeStyle;rounded=0;orthogonalLoop=1;jettySize=auto;html=1;exitX=0.5;exitY=1;exitDx=0;exitDy=0;entryX=0.5;entryY=0;entryDx=0;entryDy=0;" edge="1" parent="1" source="izUsOxpCVXIgjF28n3Nd-2" target="izUsOxpCVXIgjF28n3Nd-3">
          <mxGeometry relative="1" as="geometry" />
        </mxCell>
        <mxCell id="izUsOxpCVXIgjF28n3Nd-2" value="登录(异步)" style="rounded=0;whiteSpace=wrap;html=1;" vertex="1" parent="1">
          <mxGeometry x="320" y="150" width="120" height="40" as="geometry" />
        </mxCell>
        <mxCell id="izUsOxpCVXIgjF28n3Nd-10" style="edgeStyle=orthogonalEdgeStyle;rounded=0;orthogonalLoop=1;jettySize=auto;html=1;exitX=0.5;exitY=1;exitDx=0;exitDy=0;entryX=0.5;entryY=0;entryDx=0;entryDy=0;" edge="1" parent="1" source="izUsOxpCVXIgjF28n3Nd-3" target="izUsOxpCVXIgjF28n3Nd-5">
          <mxGeometry relative="1" as="geometry" />
        </mxCell>
        <mxCell id="izUsOxpCVXIgjF28n3Nd-3" value="加载玩家&lt;div&gt;掉落实体&lt;/div&gt;" style="rounded=0;whiteSpace=wrap;html=1;" vertex="1" parent="1">
          <mxGeometry x="320" y="220" width="120" height="40" as="geometry" />
        </mxCell>
        <mxCell id="izUsOxpCVXIgjF28n3Nd-11" style="edgeStyle=orthogonalEdgeStyle;rounded=0;orthogonalLoop=1;jettySize=auto;html=1;entryX=0.5;entryY=0;entryDx=0;entryDy=0;" edge="1" parent="1" source="izUsOxpCVXIgjF28n3Nd-5" target="izUsOxpCVXIgjF28n3Nd-6">
          <mxGeometry relative="1" as="geometry" />
        </mxCell>
        <mxCell id="izUsOxpCVXIgjF28n3Nd-5" value="策划表遍历掉落实体" style="rounded=0;whiteSpace=wrap;html=1;" vertex="1" parent="1">
          <mxGeometry x="320" y="290" width="120" height="40" as="geometry" />
        </mxCell>
        <mxCell id="izUsOxpCVXIgjF28n3Nd-12" style="edgeStyle=orthogonalEdgeStyle;rounded=0;orthogonalLoop=1;jettySize=auto;html=1;exitX=0;exitY=0.5;exitDx=0;exitDy=0;entryX=0.5;entryY=0;entryDx=0;entryDy=0;" edge="1" parent="1" source="izUsOxpCVXIgjF28n3Nd-6" target="izUsOxpCVXIgjF28n3Nd-7">
          <mxGeometry relative="1" as="geometry" />
        </mxCell>
        <mxCell id="izUsOxpCVXIgjF28n3Nd-13" style="edgeStyle=orthogonalEdgeStyle;rounded=0;orthogonalLoop=1;jettySize=auto;html=1;exitX=1;exitY=0.5;exitDx=0;exitDy=0;entryX=0.5;entryY=0;entryDx=0;entryDy=0;" edge="1" parent="1" source="izUsOxpCVXIgjF28n3Nd-6" target="izUsOxpCVXIgjF28n3Nd-8">
          <mxGeometry relative="1" as="geometry" />
        </mxCell>
        <mxCell id="izUsOxpCVXIgjF28n3Nd-6" value="策划表数据存在" style="rhombus;whiteSpace=wrap;html=1;" vertex="1" parent="1">
          <mxGeometry x="305" y="360" width="150" height="70" as="geometry" />
        </mxCell>
        <mxCell id="izUsOxpCVXIgjF28n3Nd-7" value="当前时间 &amp;gt; end()+3个月&lt;div&gt;删除&lt;/div&gt;" style="rounded=0;whiteSpace=wrap;html=1;" vertex="1" parent="1">
          <mxGeometry x="170" y="470" width="140" height="60" as="geometry" />
        </mxCell>
        <mxCell id="izUsOxpCVXIgjF28n3Nd-8" value="modifyTime+3个月 &amp;lt; 当前时间，则&lt;span style=&quot;background-color: transparent; color: light-dark(rgb(0, 0, 0), rgb(255, 255, 255));&quot;&gt;删除&lt;/span&gt;" style="rounded=0;whiteSpace=wrap;html=1;" vertex="1" parent="1">
          <mxGeometry x="455" y="480" width="140" height="50" as="geometry" />
        </mxCell>
        <mxCell id="izUsOxpCVXIgjF28n3Nd-14" value="存在" style="text;html=1;align=center;verticalAlign=middle;resizable=0;points=[];autosize=1;strokeColor=none;fillColor=none;" vertex="1" parent="1">
          <mxGeometry x="255" y="358" width="50" height="30" as="geometry" />
        </mxCell>
        <mxCell id="izUsOxpCVXIgjF28n3Nd-15" value="不存在" style="text;html=1;align=center;verticalAlign=middle;resizable=0;points=[];autosize=1;strokeColor=none;fillColor=none;" vertex="1" parent="1">
          <mxGeometry x="455" y="360" width="60" height="30" as="geometry" />
        </mxCell>
      </root>
    </mxGraphModel>
  </diagram>
</mxfile>
